<svg width="18" height="23" viewBox="0 0 18 23" fill="none" xmlns="http://www.w3.org/2000/svg">
<path d="M2.57143 1.00635L2.54348 1.0343H2.31988L2.29193 1.06225H2.18012L2.15217 1.0902H2.04037L2.01242 1.11815H1.92857L1.90062 1.1461H1.84472L1.81677 1.17405H1.76087L1.73292 1.202H1.67702L1.64907 1.22995H1.62112L1.59317 1.2579H1.56522L1.53727 1.28585H1.48137L1.42547 1.34175H1.39752L1.36957 1.3697H1.34161L1.31366 1.39765H1.28571L1.22981 1.45355H1.20186L1.17391 1.4815H1.14596L1.06211 1.56535H1.03416L0.92236 1.67715H0.89441L0.586957 1.98461V2.01256L0.475155 2.12436V2.15231L0.419255 2.20821V2.23616L0.363354 2.29206V2.32001L0.335404 2.34796V2.37591L0.279503 2.43181V2.45976L0.251553 2.48771V2.51566L0.223602 2.54361V2.59951L0.195652 2.62747V2.65542L0.167702 2.68337V2.73927L0.139752 2.76722V2.82312L0.111801 2.85107V2.90697L0.0838509 2.93492V3.01877L0.0559006 3.04672V3.15852L0.0279503 3.18647V3.49392L0 3.52187V20.6275L0.0279503 20.6554V20.9629L0.0559006 20.9908V21.1306L0.0838509 21.1585V21.2424L0.111801 21.2703V21.3542L0.139752 21.3821V21.438L0.167702 21.466V21.4939L0.195652 21.5219V21.5778L0.223602 21.6057V21.6337L0.251553 21.6616V21.6896L0.279503 21.7175V21.7455L0.307453 21.7734V21.8014L0.363354 21.8573V21.8852L0.391304 21.9132V21.9411L0.475155 22.025V22.0529L0.754658 22.3324H0.782609L0.86646 22.4163H0.89441L0.950311 22.4722H0.978261L1.00621 22.5001H1.03416L1.06211 22.5281H1.09006L1.11801 22.556H1.14596L1.17391 22.584H1.20186L1.22981 22.6119H1.28571L1.31366 22.6399H1.36957L1.39752 22.6678H1.48137L1.50932 22.6958H1.62112L1.64907 22.7237H5.05901L5.08696 22.6958H5.28261L5.31056 22.6678H5.42236L5.45031 22.6399H5.53416L5.56211 22.6119H5.61801L5.64596 22.584H5.70186L5.72981 22.556H5.78571L5.81366 22.5281H5.86957L5.89752 22.5001H5.92547L5.95342 22.4722H5.98137L6.00932 22.4442H6.06522L6.12112 22.3883H6.14907L6.17702 22.3604H6.20497L6.23292 22.3324H6.26087L6.28882 22.3045H6.31677L6.37267 22.2486H6.40062L6.42857 22.2206H6.45652L6.51242 22.1647H6.54037L6.62422 22.0809H6.65217L6.73602 21.997H6.76398L6.90373 21.8573H6.93168L7.35093 21.438V21.4101L7.46273 21.2983V21.2703L7.54658 21.1865V21.1585L7.60248 21.1026V21.0747L7.65839 21.0188V20.9908L7.68634 20.9629V20.9349L7.71429 20.907V20.879L7.74224 20.8511V20.8231L7.77019 20.7952V20.7672L7.79814 20.7393V20.7113L7.82609 20.6834V20.6275L7.85404 20.5995V20.5436L7.88199 20.5157V20.4598L7.90994 20.4318V20.2921L7.93789 20.2641V19.9567L7.90994 19.9287V19.8169L7.88199 19.7889V19.7051L7.85404 19.6771V19.6212L7.82609 19.5933V19.5374L7.79814 19.5094V19.4815L7.77019 19.4535V19.4256L7.74224 19.3976V19.3697L7.71429 19.3417V19.3138L7.65839 19.2579V19.2299L7.63043 19.202V19.174L7.54658 19.0902V19.0622L7.37888 18.8945V18.8666L4.05279 15.5405H4.02484L3.99689 15.5126V15.4846L3.94099 15.4287H3.91304L3.88509 15.4008V15.3728H3.85714L3.80124 15.3169V15.289H3.77329L3.74534 15.261V15.2331L3.66149 15.1492H3.63354L3.60559 15.1212V15.0933L2.65528 14.143V14.115L2.54348 14.0032V13.9753L2.48758 13.9194V13.8914L2.43168 13.8355V13.8076L2.40373 13.7796V13.7517L2.37578 13.7237V13.6958L2.34783 13.6678V13.6399L2.31988 13.6119V13.584L2.29193 13.556V13.5001L2.26398 13.4722V13.3883L2.23602 13.3604V13.2765L2.20807 13.2486V12.6616L2.23602 12.6337V12.5498L2.26398 12.5219V12.466L2.29193 12.438V12.3821L2.31988 12.3542V12.3262L2.34783 12.2983V12.2703L2.37578 12.2424V12.2144L2.40373 12.1865V12.1585L2.65528 11.907H2.68323L2.71118 11.879H2.73913L2.76708 11.8511H2.79503L2.82298 11.8231H2.90683L2.93478 11.7952H3.13043L3.15839 11.8231H3.24224L3.27019 11.8511H3.32609L3.35404 11.879H3.38199L3.40994 11.907H3.43789L3.52174 11.9908H3.54969L8.5528 16.9939H8.58075L8.63665 17.0498V17.0778H8.6646L8.7764 17.1896V17.2175H8.80435L8.86025 17.2734V17.3014H8.8882L13.0248 21.438H13.0528L13.2205 21.6057H13.2484L13.3323 21.6896H13.3602L13.4161 21.7455H13.4441L13.5 21.8014H13.528L13.5839 21.8573H13.6118L13.6398 21.8852H13.6677L13.6957 21.9132H13.7236L13.7516 21.9411H13.7795L13.8075 21.9691H13.8354L13.8634 21.997H13.8913L13.9193 22.025H13.9472L13.9752 22.0529H14.0311L14.059 22.0809H14.1149L14.1429 22.1088H14.1988L14.2267 22.1368H14.3106L14.3385 22.1647H14.4224L14.4503 22.1927H14.5901L14.618 22.2206H14.8137L14.8416 22.2486H15.4286L15.4565 22.2206H15.6801L15.7081 22.1927H15.8478L15.8758 22.1647H15.9596L15.9876 22.1368H16.0714L16.0994 22.1088H16.1553L16.1832 22.0809H16.2391L16.2671 22.0529H16.323L16.3509 22.025H16.3789L16.4068 21.997H16.4348L16.4627 21.9691H16.5186L16.5466 21.9411H16.5745L16.6025 21.9132H16.6304L16.6863 21.8573H16.7143L16.7422 21.8293H16.7702L16.8261 21.7734H16.854L16.9099 21.7175H16.9379L16.9938 21.6616H17.0217L17.1615 21.5219H17.1894L17.441 21.2703V21.2424L17.5528 21.1306V21.1026L17.6087 21.0467V21.0188L17.6646 20.9629V20.9349L17.7205 20.879V20.8511L17.7484 20.8231V20.7952L17.7764 20.7672V20.7393L17.8043 20.7113V20.6834L17.8323 20.6554V20.6275L17.8602 20.5995V20.5436L17.8882 20.5157V20.4598L17.9161 20.4318V20.3759L17.9441 20.348V20.2641L17.972 20.2362V20.1244L18 20.0964V15.6803L17.972 15.6523V15.4846L17.9441 15.4567V15.3449L17.9161 15.3169V15.261L17.8882 15.2331V15.1492L17.8602 15.1212V15.0933L17.8323 15.0653V15.0094L17.8043 14.9815V14.9535L17.7764 14.9256V14.8976L17.7484 14.8697V14.8417L17.7205 14.8138V14.7858L17.6925 14.7579V14.7299L17.6646 14.702V14.674L17.6087 14.6181V14.5902L17.5807 14.5622V14.5343L17.4969 14.4504V14.4225L17.413 14.3386V14.3107L17.1894 14.0871V14.0591L4.94721 1.81691H4.91925L4.7795 1.67715H4.75155L4.6677 1.5933H4.63975L4.5559 1.50945H4.52795L4.5 1.4815H4.47205L4.41615 1.4256H4.3882L4.3323 1.3697H4.30435L4.2764 1.34175H4.24845L4.2205 1.3138H4.19255L4.1646 1.28585H4.13665L4.1087 1.2579H4.08075L4.05279 1.22995H3.99689L3.96894 1.202H3.94099L3.91304 1.17405H3.85714L3.82919 1.1461H3.77329L3.74534 1.11815H3.66149L3.63354 1.0902H3.54969L3.52174 1.06225H3.40994L3.38199 1.0343H3.15839L3.13043 1.00635H2.57143Z" fill="black"/>
<path d="M13.1085 0L13.0805 0.0279503H12.9128L12.8849 0.0559006H12.7731L12.7451 0.0838509H12.6613L12.6333 0.111801H12.5495L12.5215 0.139751H12.4656L12.4377 0.167702H12.4097L12.3818 0.195652H12.3259L12.2979 0.223602H12.242L12.2141 0.251553H12.1861L12.1582 0.279503H12.1302L12.1023 0.307453H12.0743L12.0464 0.335404H12.0184L11.9905 0.363354H11.9625L11.9346 0.391304H11.9066L11.8787 0.419254H11.8507L11.7948 0.475155H11.7669L11.7389 0.503105H11.711L11.6551 0.559006H11.6271L11.5712 0.614906H11.5433L11.4594 0.698757H11.4315L11.3476 0.782608H11.3197L11.1799 0.92236H11.152L10.7048 1.36956V1.39751L10.565 1.53727V1.56522L10.5091 1.62112V1.64907L10.4532 1.70497V1.73292L10.4253 1.76087V1.78882L10.3694 1.84472V1.87267L10.3414 1.90062V1.92857L10.3135 1.95652V2.01242L10.2855 2.04037V2.06832L10.2576 2.09627V2.18012L10.2296 2.20807V2.29192L10.2017 2.31987V2.43168L10.1737 2.45963V2.82298L10.2017 2.85093V2.99068L10.2296 3.01863V3.10248L10.2576 3.13043V3.18633L10.2855 3.21428V3.27018L10.3135 3.29813V3.32609L10.3414 3.35404V3.40994L10.3694 3.43789V3.46584L10.3973 3.49379V3.52174L10.4532 3.57764V3.60559L10.4812 3.63354V3.66149L10.5371 3.71739V3.74534L10.6489 3.85714V3.88509L16.4905 9.7267H16.5184L16.5743 9.7826H16.6023L16.6582 9.8385H16.6861L16.7141 9.86645H16.742L16.77 9.89441H16.7979L16.8259 9.92235H16.8818L16.9097 9.9503H16.9936L17.0215 9.97826H17.2731L17.301 9.9503H17.3849L17.4128 9.92235H17.4408L17.4687 9.89441H17.4967L17.5246 9.86645H17.5526L17.6085 9.81055H17.6364L17.7762 9.6708V9.64285L17.8321 9.58695V9.559L17.86 9.53105V9.5031L17.888 9.47515V9.4472L17.9159 9.41925V9.3913L17.9439 9.36335V9.2795L17.9718 9.25155V9.1677L17.9998 9.13975V1.42547L17.9718 1.39751V1.25776L17.9439 1.22981V1.14596L17.9159 1.11801V1.06211L17.888 1.03416V1.00621L17.86 0.97826V0.92236L17.8321 0.894409V0.866459L17.8041 0.838509V0.810559L17.7482 0.754658V0.726708L17.6923 0.670807V0.642857L17.6085 0.559006V0.531056L17.5246 0.447205H17.4967L17.3569 0.307453H17.329L17.2731 0.251553H17.2451L17.2172 0.223602H17.1892L17.1613 0.195652H17.1333L17.1054 0.167702H17.0774L17.0495 0.139751H17.0215L16.9936 0.111801H16.9377L16.9097 0.0838509H16.8538L16.8259 0.0559006H16.742L16.7141 0.0279503H16.6302L16.6023 0H13.1085Z" fill="black"/>
</svg>
